<?xml version="1.0" standalone="no"?>
<!DOCTYPE svg PUBLIC "-//W3C//DTD SVG 20010904//EN"
 "http://www.w3.org/TR/2001/REC-SVG-20010904/DTD/svg10.dtd">
<svg version="1.0" xmlns="http://www.w3.org/2000/svg"
 width="177.000000pt" height="264.000000pt" viewBox="0 0 177.000000 264.000000"
 preserveAspectRatio="xMidYMid meet">

<g transform="translate(0.000000,264.000000) scale(0.100000,-0.100000)"
fill="#000000" stroke="none">
<path d="M90 2493 c-83 -3 -92 -5 -70 -16 48 -24 50 -40 50 -378 0 -200 -4
-327 -11 -347 -7 -19 -21 -34 -37 -40 -20 -7 7 -11 108 -17 186 -12 235 -8
300 21 143 65 219 218 207 414 -11 181 -100 313 -240 355 -49 15 -83 15 -307
8z m322 -36 c55 -32 100 -91 129 -167 26 -68 37 -239 20 -320 -25 -120 -87
-212 -168 -250 -41 -19 -60 -22 -138 -18 -49 2 -96 7 -102 11 -10 6 -13 94
-13 382 l0 374 33 10 c17 6 68 9 113 8 66 -3 89 -8 126 -30z"/>
<path d="M780 1723 c0 -487 -4 -743 -10 -733 -6 9 -10 10 -10 3 0 -6 5 -15 10
-18 6 -3 10 -28 10 -56 0 -27 5 -49 10 -49 7 0 10 156 10 449 0 289 4 452 10
456 6 3 10 12 10 18 0 7 -4 6 -10 -3 -7 -10 -10 22 -10 105 3 383 -1 575 -10
575 -7 0 -10 -256 -10 -747z"/>
<path d="M885 2402 c14 -29 32 -84 40 -124 14 -72 14 -73 -8 -92 -22 -18 -22
-18 -25 10 -5 44 -31 121 -46 134 -8 6 -4 -9 8 -32 16 -33 21 -61 21 -119 0
-52 3 -72 10 -64 6 7 19 18 30 24 19 11 19 12 -2 6 -13 -4 -23 -2 -23 4 0 10
111 66 153 76 30 8 37 30 35 105 l-1 55 -7 -63 c-4 -40 -14 -70 -25 -80 -14
-13 -18 -14 -22 -4 -4 10 -9 8 -20 -7 -18 -27 -37 -28 -23 -2 15 29 30 71 25
71 -3 0 -14 -18 -25 -40 -24 -48 -34 -51 -28 -10 3 17 1 30 -4 30 -20 0 -5 47
25 78 22 24 26 31 11 24 -11 -6 -26 -18 -34 -26 -19 -23 -23 -20 -43 28 -10
25 -25 50 -33 57 -8 7 -3 -10 11 -39z"/>
<path d="M1128 2253 c7 -3 16 -2 19 1 4 3 -2 6 -13 5 -11 0 -14 -3 -6 -6z"/>
<path d="M1088 2243 c7 -3 16 -2 19 1 4 3 -2 6 -13 5 -11 0 -14 -3 -6 -6z"/>
<path d="M1201 2224 c0 -11 3 -14 6 -6 3 7 2 16 -1 19 -3 4 -6 -2 -5 -13z"/>
<path d="M1166 2139 c-39 -65 -164 -119 -280 -119 -70 -1 -71 -1 -36 -14 71
-27 76 -28 50 -11 -25 16 -25 16 19 11 24 -2 51 -1 60 4 9 5 38 15 65 24 53
16 80 9 131 -33 19 -15 19 -15 6 2 -8 10 -30 26 -49 36 l-34 17 25 17 c25 16
73 84 65 92 -2 3 -12 -9 -22 -26z"/>
<path d="M850 2150 c0 -5 -10 -10 -22 -10 l-22 0 23 -16 c18 -13 22 -23 17
-46 -5 -25 -3 -28 8 -19 7 6 31 18 52 26 37 14 37 15 6 9 -41 -7 -64 10 -56
42 3 13 3 24 0 24 -3 0 -6 -4 -6 -10z"/>
<path d="M965 2110 c-13 -6 -15 -9 -5 -9 8 0 22 4 30 9 18 12 2 12 -25 0z"/>
<path d="M885 2040 l-60 -7 55 0 c30 0 69 3 85 7 26 7 27 8 5 7 -14 0 -52 -3
-85 -7z"/>
<path d="M870 1975 c0 -14 86 -37 150 -40 l75 -4 -70 10 c-38 5 -89 16 -112
23 -24 8 -43 13 -43 11z"/>
<path d="M1108 1943 c7 -3 16 -2 19 1 4 3 -2 6 -13 5 -11 0 -14 -3 -6 -6z"/>
<path d="M972 1863 c42 -48 59 -76 69 -118 7 -28 7 -28 8 -4 1 29 -44 103 -85
139 -21 19 -20 15 8 -17z"/>
<path d="M890 1877 c0 -20 -20 -22 -40 -4 -12 10 -12 9 -1 -5 7 -10 20 -18 28
-18 15 0 29 27 19 37 -3 4 -6 -1 -6 -10z"/>
<path d="M821 1824 c0 -11 3 -14 6 -6 3 7 2 16 -1 19 -3 4 -6 -2 -5 -13z"/>
<path d="M1249 1687 c-227 -85 -319 -385 -192 -620 52 -95 173 -179 252 -176
23 1 22 2 -7 9 -83 20 -162 104 -203 219 -19 54 -24 86 -24 171 0 174 50 292
153 365 37 25 55 30 117 33 125 7 195 -43 197 -137 0 -50 -19 -77 -107 -150
-81 -66 -107 -105 -107 -158 0 -37 25 -73 51 -73 12 0 12 3 3 12 -7 7 -12 25
-12 41 0 30 3 34 132 154 30 28 62 67 71 86 38 80 10 161 -73 207 -55 30 -192
39 -251 17z"/>
<path d="M699 1643 c-14 -21 -30 -51 -37 -67 -13 -29 -13 -29 -35 -9 -47 41
-60 45 -24 7 33 -36 50 -84 29 -84 -5 0 -7 -13 -4 -30 6 -41 -2 -38 -29 10
-28 49 -35 46 -14 -5 18 -41 15 -54 -6 -32 -8 7 -20 12 -28 9 -19 -6 -41 25
-41 57 0 14 -5 33 -10 41 -7 10 -9 -1 -4 -37 6 -50 6 -52 -17 -47 -13 2 1 -4
31 -15 155 -52 249 -115 113 -76 -10 3 2 -4 27 -15 24 -12 48 -26 51 -32 4 -7
5 16 2 49 -6 62 11 136 39 173 7 9 3 6 -9 -7 -24 -25 -43 -81 -43 -125 0 -26
-2 -27 -26 -16 -24 11 -25 15 -18 62 8 62 37 147 65 192 28 46 18 43 -12 -3z"/>
<path d="M501 1584 c0 -11 3 -14 6 -6 3 7 2 16 -1 19 -3 4 -6 -2 -5 -13z"/>
<path d="M418 1463 c6 -2 18 -2 25 0 6 3 1 5 -13 5 -14 0 -19 -2 -12 -5z"/>
<path d="M380 1384 c1 -16 24 -50 61 -91 31 -34 49 -44 119 -62 45 -12 84 -20
87 -17 6 6 4 7 -67 26 -83 23 -139 58 -170 107 -17 26 -30 43 -30 37z"/>
<path d="M721 1353 c-2 -62 -5 -63 -79 -43 -91 25 -91 17 0 -11 40 -13 80 -29
88 -37 13 -12 4 -14 -70 -9 -100 5 -65 -9 44 -19 l69 -6 -21 27 c-28 35 -28
60 1 80 22 17 22 17 0 10 -17 -5 -22 -1 -26 17 -3 18 -5 16 -6 -9z"/>
<path d="M435 1240 c-3 -6 1 -7 9 -4 18 7 21 14 7 14 -6 0 -13 -4 -16 -10z"/>
<path d="M399 1213 c-13 -16 -12 -17 4 -4 9 7 17 15 17 17 0 8 -8 3 -21 -13z"/>
<path d="M696 1211 c-4 -5 3 -7 14 -4 23 6 26 13 6 13 -8 0 -17 -4 -20 -9z"/>
<path d="M670 1173 c-19 -8 -75 -19 -125 -23 l-90 -8 90 2 c68 1 101 7 135 23
51 24 43 29 -10 6z"/>
<path d="M681 1083 c-1 -26 16 -40 32 -24 8 8 7 11 -5 11 -9 0 -19 8 -21 18
-4 13 -5 12 -6 -5z"/>
<path d="M570 1039 c-32 -40 -40 -58 -38 -87 l1 -37 4 35 c2 22 19 56 43 88
51 67 43 68 -10 1z"/>
<path d="M751 1024 c0 -11 3 -14 6 -6 3 7 2 16 -1 19 -3 4 -6 -2 -5 -13z"/>
<path d="M1547 985 c-38 -48 -69 -66 -146 -87 l-66 -17 60 5 c75 7 156 22 173
33 9 5 12 24 10 55 l-3 46 -28 -35z"/>
<path d="M473 383 c241 -2 633 -2 870 0 238 1 41 2 -438 2 -478 0 -673 -1
-432 -2z"/>
<path d="M340 160 l0 -70 39 0 c31 0 44 6 60 26 44 55 13 114 -59 114 l-40 0
0 -70z m85 44 c25 -26 16 -76 -18 -92 -38 -18 -47 -9 -47 54 0 51 2 54 24 54
14 0 32 -7 41 -16z"/>
<path d="M490 161 c0 -41 4 -71 10 -71 6 0 10 14 10 30 0 18 5 30 13 30 7 0
21 -13 30 -30 10 -17 23 -30 29 -30 6 0 3 12 -7 26 -15 23 -15 30 -4 51 18 34
1 57 -45 61 l-36 3 0 -70z m68 35 c2 -10 -2 -22 -10 -27 -25 -17 -38 -9 -38
22 0 26 3 30 22 27 13 -2 24 -11 26 -22z"/>
<path d="M610 160 l0 -70 43 1 c38 1 39 2 12 8 -23 5 -31 12 -33 33 -3 23 1
27 30 31 l33 4 -32 1 c-28 2 -33 6 -33 26 0 20 6 25 33 29 28 3 26 4 -10 5
l-43 2 0 -70z"/>
<path d="M727 223 c-17 -16 -4 -45 28 -64 19 -12 35 -24 35 -29 0 -16 -30 -32
-50 -27 -11 3 -20 1 -20 -5 0 -5 17 -8 38 -6 34 3 37 6 37 32 0 22 -7 33 -29
45 -16 9 -28 20 -27 24 0 4 1 12 1 18 0 7 12 10 30 7 17 -3 30 -1 30 4 0 10
-64 11 -73 1z"/>
<path d="M837 223 c-17 -16 -4 -45 28 -64 19 -12 35 -24 35 -29 0 -16 -30 -32
-50 -27 -11 3 -20 1 -20 -5 0 -5 17 -8 38 -6 34 3 37 6 37 32 0 22 -7 33 -29
45 -16 9 -28 20 -27 24 0 4 1 12 1 18 0 7 12 10 30 7 17 -3 30 -1 30 4 0 10
-64 11 -73 1z"/>
<path d="M1006 208 c-36 -51 -8 -118 50 -118 19 0 34 4 34 9 0 4 -11 6 -23 4
-31 -6 -57 20 -57 57 0 37 26 63 57 57 12 -2 23 0 23 4 0 5 -15 9 -34 9 -25 0
-39 -7 -50 -22z"/>
<path d="M1131 216 c-28 -34 -12 -113 25 -122 43 -11 71 3 84 41 18 54 -3 89
-56 93 -27 2 -45 -2 -53 -12z m83 -12 c31 -31 7 -104 -34 -104 -21 0 -50 35
-50 60 0 25 29 60 50 60 10 0 26 -7 34 -16z"/>
<path d="M1280 160 l0 -70 33 0 c50 0 77 24 77 69 0 48 -24 71 -73 71 l-37 0
0 -70z m81 39 c15 -15 19 -28 14 -47 -8 -34 -13 -39 -47 -47 l-28 -7 0 61 c0
54 2 61 20 61 11 0 29 -9 41 -21z"/>
<path d="M1420 160 l0 -70 43 1 c38 1 39 2 12 8 -23 5 -31 12 -33 33 -3 23 1
27 30 31 l33 4 -32 1 c-28 2 -33 6 -33 26 0 20 6 25 33 29 28 3 26 4 -10 5
l-43 2 0 -70z"/>
</g>
</svg>
